<?xml version="1.0" ?><svg viewBox="0 0 64 64" xmlns="http://www.w3.org/2000/svg"><defs><style>.cls-1,.cls-4{fill:#94a1b2;}.cls-1,.cls-5,.cls-6,.cls-8{fill-rule:evenodd;}.cls-2{fill:#e0e5eb;}.cls-3{fill:#bec7d6;}.cls-5{fill:#5e697b;}.cls-6{fill:#f8e157;}.cls-7{fill:#f64f7d;}.cls-8{fill:#fcbf4a;}</style></defs><g data-name="Billboard Video" id="Billboard_Video"><path class="cls-1" d="M54.58,56.66a1.47,1.47,0,0,0-1.47-1.47H10.89a1.5,1.5,0,0,0-1,.43,1.46,1.46,0,0,0-.43,1v1.72a1.46,1.46,0,0,0,.43,1,1.5,1.5,0,0,0,1,.43H53.11a1.47,1.47,0,0,0,1.47-1.47Z"/><path class="cls-2" d="M55.88,7.12H8.12A1.64,1.64,0,0,0,6.48,8.76V35.9A1.6,1.6,0,0,0,7,37.05a1.63,1.63,0,0,0,1.16.48H55.88A1.63,1.63,0,0,0,57,37.05a1.6,1.6,0,0,0,.48-1.15V8.76a1.64,1.64,0,0,0-1.64-1.64Z"/><rect class="cls-3" height="17.66" width="12.09" x="25.96" y="37.53"/><path class="cls-3" d="M14.21,41a1.64,1.64,0,0,0,1.64,1.64H26V37.53H14.21ZM38,42.62H48.15A1.64,1.64,0,0,0,49.79,41V37.53H38Z"/><path class="cls-3" d="M55.88,7.12H52.39V37.53h3.49A1.63,1.63,0,0,0,57,37.05a1.6,1.6,0,0,0,.48-1.15V8.76a1.64,1.64,0,0,0-1.64-1.64Z"/><path class="cls-4" d="M22.61,42.62H26V37.53H22.61Zm23.83,0h1.71A1.64,1.64,0,0,0,49.79,41V37.53H46.44Z"/><rect class="cls-4" height="17.66" width="2.85" x="35.19" y="37.53"/><path class="cls-5" d="M54.58,56.66a1.46,1.46,0,0,0-.43-1,1.5,1.5,0,0,0-1-.43H48.2v4.66h4.91a1.5,1.5,0,0,0,1-.43,1.46,1.46,0,0,0,.43-1Z"/><path class="cls-6" d="M53,13.38a1.67,1.67,0,0,0-1.66-1.66H12.65A1.67,1.67,0,0,0,11,13.38v18a1.66,1.66,0,0,0,.49,1.17,1.62,1.62,0,0,0,1.17.49h38.7a1.62,1.62,0,0,0,1.17-.49A1.66,1.66,0,0,0,53,31.36Z"/><path class="cls-7" d="M29.63,15.49a1,1,0,0,0-1-.05,1,1,0,0,0-.5.85v6a1,1,0,0,0,1.44.83l4.89-2.8a.95.95,0,0,0,.05-1.63Z"/><path class="cls-8" d="M53,13.38a1.67,1.67,0,0,0-1.66-1.66h-4V33h4A1.66,1.66,0,0,0,53,31.36Z"/><path class="cls-5" d="M19.8,30.16h1.38a1,1,0,0,0,0-2H19.8a1,1,0,0,0,0,2Z"/><path class="cls-5" d="M25.56,30.16h1.37a1,1,0,0,0,0-2H25.56a1,1,0,0,0,0,2Z"/><path class="cls-5" d="M31.31,30.16h1.38a1,1,0,0,0,0-2H31.31a1,1,0,0,0,0,2Z"/><path class="cls-5" d="M37.07,30.16h1.37a1,1,0,0,0,0-2H37.07a1,1,0,0,0,0,2Z"/><path class="cls-5" d="M42.82,30.16H44.2a1,1,0,0,0,0-2H42.82a1,1,0,0,0,0,2Z"/><path class="cls-5" d="M21.8,9.21a1,1,0,0,0,1-1V5.13a1,1,0,0,0-1-1h0a1,1,0,0,0-1,1v3a1,1,0,0,0,.29.7,1,1,0,0,0,.71.3ZM52.4,4.15a1,1,0,0,1,.71.29,1,1,0,0,1,.29.71V8.21a1,1,0,0,1-.29.7,1,1,0,0,1-.71.3h0a1,1,0,0,1-1-1V5.15a1,1,0,0,1,1-1Zm-25.5,0a1.05,1.05,0,0,1,.71.29,1,1,0,0,1,.29.71V8.21a1,1,0,0,1-1,1h0a1,1,0,0,1-1-1V5.15a1,1,0,0,1,1-1ZM47.3,9.21a1,1,0,0,0,1-1V5.15a1,1,0,0,0-1-1h0a1.05,1.05,0,0,0-.71.29,1,1,0,0,0-.29.71V8.21a1,1,0,0,0,1,1Zm-35.7,0a1,1,0,0,0,1-1V5.15a1,1,0,0,0-1-1h0a1,1,0,0,0-.71.29,1,1,0,0,0-.29.71V8.21a1,1,0,0,0,.29.7,1,1,0,0,0,.71.3Zm20.4,0a1,1,0,0,0,1-1V5.15a1,1,0,0,0-1-1h0a1,1,0,0,0-1,1V8.21a1,1,0,0,0,1,1Zm-15.3,0a1,1,0,0,0,1-1V5.15a1,1,0,0,0-1-1h0a1,1,0,0,0-.71.29,1,1,0,0,0-.29.71V8.21a1,1,0,0,0,.29.7,1,1,0,0,0,.71.3ZM37.1,4.15a1,1,0,0,1,.71.29,1,1,0,0,1,.29.71V8.21a1,1,0,0,1-.29.7,1,1,0,0,1-.71.3h0a1,1,0,0,1-1-1V5.15a1,1,0,0,1,1-1Zm5.1,0a1,1,0,0,1,.71.29,1,1,0,0,1,.29.71V8.21a1,1,0,0,1-.29.7,1,1,0,0,1-.71.3h0a1,1,0,0,1-1-1V5.15a1,1,0,0,1,1-1Z"/></g></svg>