<?xml version="1.0" ?><svg viewBox="0 0 64 64" xmlns="http://www.w3.org/2000/svg"><defs><style>.cls-1{fill:#e0e5eb;}.cls-2{fill:#94a1b2;}.cls-3{fill:#bec7d6;}.cls-4{fill:#5e697b;}.cls-5{fill:#f8e157;}.cls-6{fill:#f64f7d;}.cls-7{fill:#fcbf4a;}</style></defs><g data-name="Video Ads" id="Video_Ads"><path class="cls-1" d="M55.93,45.66V12.06a1.67,1.67,0,0,0-1.68-1.68H9.38a1.66,1.66,0,0,0-1.19.49,1.65,1.65,0,0,0-.49,1.19V50.41H53.8Z"/><polygon class="cls-2" points="7.7 41.98 7.7 50.41 53.8 50.41 55.93 45.66 55.93 41.98 7.7 41.98"/><path class="cls-3" d="M55.93,45.66V12.06a1.67,1.67,0,0,0-1.68-1.68H47.72v40h7.85Z"/><polygon class="cls-4" points="47.72 41.98 47.72 50.41 55.57 50.41 55.93 45.66 55.93 41.98 47.72 41.98"/><path class="cls-3" d="M5.68,45.66A1.67,1.67,0,0,0,4,47.34v2.84a3.44,3.44,0,0,0,3.45,3.44h49.1A3.44,3.44,0,0,0,60,50.18V47.34a1.67,1.67,0,0,0-1.68-1.68H44.43a1.56,1.56,0,0,0-1.1.45,1.54,1.54,0,0,0-.45,1.09v.17A1.59,1.59,0,0,1,41.29,49H22.71a1.59,1.59,0,0,1-1.59-1.59V47.2a1.54,1.54,0,0,0-.45-1.09,1.56,1.56,0,0,0-1.1-.45Z"/><path class="cls-5" d="M42.27,25.37A10.27,10.27,0,1,1,32,15.1,10.27,10.27,0,0,1,42.27,25.37Z"/><path class="cls-6" d="M30.1,22.53a.78.78,0,0,1,.43-.7.77.77,0,0,1,.81.08l3.77,2.84a.74.74,0,0,1,.31.62.77.77,0,0,1-.31.62l-3.77,2.84a.75.75,0,0,1-.81.07.78.78,0,0,1-.43-.69Z"/><path class="cls-2" d="M51.89,45.66v4.52a3.44,3.44,0,0,1-3.44,3.44h8.1A3.44,3.44,0,0,0,60,50.18V47.34a1.67,1.67,0,0,0-1.68-1.68Z"/><path class="cls-7" d="M32,15.1a10.51,10.51,0,0,0-1.58.12,10.27,10.27,0,0,1,0,20.3A10.27,10.27,0,1,0,32,15.1Z"/></g></svg>