<svg width="47" height="27" viewBox="0 0 47 27" fill="none" xmlns="http://www.w3.org/2000/svg">
<path fill-rule="evenodd" clip-rule="evenodd" d="M33.0643 1.37631C33.2322 1.20798 33.4317 1.07442 33.6513 0.983302C33.8709 0.892179 34.1063 0.845276 34.3441 0.845276C34.5818 0.845276 34.8172 0.892179 35.0368 0.983302C35.2564 1.07442 35.4559 1.20798 35.6238 1.37631L46.469 12.2215C46.6373 12.3894 46.7709 12.5889 46.862 12.8085C46.9531 13.0281 47 13.2635 47 13.5012C47 13.739 46.9531 13.9744 46.862 14.194C46.7709 14.4136 46.6373 14.6131 46.469 14.781L35.6238 25.6261C35.2844 25.9656 34.824 26.1562 34.3441 26.1562C33.8641 26.1562 33.4037 25.9656 33.0643 25.6261C32.7249 25.2867 32.5342 24.8264 32.5342 24.3464C32.5342 23.8664 32.7249 23.4061 33.0643 23.0667L42.6334 13.5012L33.0643 3.93577C32.896 3.76787 32.7624 3.5684 32.6713 3.34881C32.5802 3.12921 32.5333 2.89379 32.5333 2.65604C32.5333 2.41828 32.5802 2.18287 32.6713 1.96327C32.7624 1.74367 32.896 1.54421 33.0643 1.37631Z" fill="white"/>
<rect x="0.000915527" y="11.6905" width="43.3808" height="3.61506" rx="1.80753" fill="white"/>
</svg>
