<svg width="19" height="31" viewBox="0 0 19 31" fill="none" xmlns="http://www.w3.org/2000/svg">
<path fill-rule="evenodd" clip-rule="evenodd" d="M1.21337 0.651881C1.41901 0.445727 1.66329 0.282166 1.93223 0.170567C2.20118 0.0589685 2.48949 0.00152588 2.78067 0.00152588C3.07185 0.00152588 3.36016 0.0589685 3.6291 0.170567C3.89805 0.282166 4.14233 0.445727 4.34797 0.651881L17.6301 13.934C17.8363 14.1397 17.9998 14.384 18.1114 14.6529C18.223 14.9218 18.2805 15.2102 18.2805 15.5013C18.2805 15.7925 18.223 16.0808 18.1114 16.3498C17.9998 16.6187 17.8363 16.863 17.6301 17.0686L4.34797 30.3508C3.93229 30.7665 3.36852 31 2.78067 31C2.19282 31 1.62905 30.7665 1.21337 30.3508C0.797701 29.9351 0.564178 29.3714 0.564178 28.7835C0.564178 28.1957 0.797701 27.6319 1.21337 27.2162L12.9327 15.5013L1.21337 3.78647C1.00722 3.58084 0.843661 3.33656 0.732062 3.06761C0.620464 2.79867 0.563019 2.51035 0.563019 2.21918C0.563019 1.928 0.620464 1.63968 0.732062 1.37074C0.843661 1.1018 1.00722 0.857514 1.21337 0.651881Z" fill="white"/>
</svg>
